# Blender v2.78 (sub 0) OBJ File: ''
# www.blender.org
o Cube
v 0.400000 0.400000 0.500000
v 0.400000 -0.400000 0.500000
v -0.400000 0.400000 0.500000
v -0.400000 -0.400000 0.500000

v 0.400000 0.400000 -0.500000
v 0.400000 -0.400000 -0.500000
v -0.400000 0.400000 -0.500000
v -0.400000 -0.400000 -0.500000

v 0.400000 0.500000 0.400000
v 0.400000 0.500000 -0.400000
v -0.400000 0.500000 0.400000
v -0.400000 0.500000 -0.400000

v 0.400000 -0.500000 0.400000
v 0.400000 -0.500000 -0.400000
v -0.400000 -0.500000 0.400000
v -0.400000 -0.500000 -0.400000

v 0.500000 0.400000 0.400000
v 0.500000 0.400000 -0.400000
v 0.500000 -0.400000 0.400000
v 0.500000 -0.400000 -0.400000

v -0.500000 0.400000 0.400000
v -0.500000 0.400000 -0.400000
v -0.500000 -0.400000 0.400000
v -0.500000 -0.400000 -0.400000

vt 1.0000 0.0000
vt 0.0000 1.0000
vt 0.0000 0.0000
vt 1.0000 0.0000
vt 0.0000 1.0000
vt 0.0000 0.0000
vt 1.0000 0.0000
vt 0.0000 1.0000
vt 1.0000 0.0000
vt 0.0000 1.0000
vt 0.0000 0.0000
vt 0.0000 0.0000
vt 1.0000 1.0000
vt 1.0000 0.0000
vt 0.0000 1.0000
vt 1.0000 1.0000
vt 1.0000 1.0000
vt 1.0000 1.0000
vt 1.0000 0.0000
vt 1.0000 1.0000

vn 0.0000 0.0000 -1.0000
vn 0.0000 0.0000 1.0000
vn 1.0000 0.0000 -0.0000
vn -0.0000 -1.0000 -0.0000
vn -1.0000 0.0000 -0.0000
vn 0.0000 1.0000 0.0000

f 1/1/2 3/1/2 2/1/2
f 2/1/2 3/1/2 4/1/2

f 5/1/1 6/1/1 7/1/1
f 7/1/1 6/1/1 8/1/1

f 9/1/6 10/1/6 11/1/6
f 11/1/6 10/1/6 12/1/6

f 12/1/6 10/1/6 5/1/1 
f 12/1/6 5/1/1 7/1/1

#f 14/1/4 13/1/4 15/1/4
#f 14/1/4 15/1/4 16/1/4

f 18/1/3 17/1/3 19/1/3
f 18/1/3 19/1/3 20/1/3

f 18/1/3 20/1/3 5/1/1
f 5/1/1 20/1/3 6/1/1

f 18/1/3 5/1/1 10/1/6

f 17/1/3 18/1/3 10/1/6
f 10/1/6 9/1/6 17/1/3

