# Blender v3.0.1 OBJ File: 'streetlamp.blend'
# www.blender.org
o Cylinder_Cylinder.001
v 0.000000 0.000000 1.000000
v -0.000000 25.000000 0.500000
v -0.707107 0.000000 0.707107
v -0.353553 25.000000 0.353553
v -1.000000 0.000000 -0.000000
v -0.500000 25.000000 -0.000000
v -0.707107 0.000000 -0.707107
v -0.353553 25.000000 -0.353553
v 0.000000 0.000000 -1.000000
v 0.000000 25.000000 -0.500000
v 0.707107 0.000000 -0.707107
v 0.353553 25.000000 -0.353553
v 1.000000 0.000000 0.000000
v 0.500000 25.000000 -0.000000
v 0.707107 0.000000 0.707107
v 0.353553 25.000000 0.353553
v -0.353553 26.000000 0.353553
v 0.000001 26.000000 0.500000
v -0.499999 26.000000 -0.000000
v -0.353553 26.000000 -0.353553
v 0.000001 26.000000 -0.500000
v 0.353554 26.000000 -0.353553
v 0.500001 26.000000 -0.000000
v 0.353554 26.000000 0.353553
v -0.353553 25.500000 -0.353553
v 0.000000 25.500000 -0.500000
v 0.500000 25.500000 -0.000000
v 0.353554 25.500000 0.353553
v -0.353553 25.500000 0.353553
v -0.500000 25.500000 -0.000000
v 0.353554 25.500000 -0.353553
v 0.000000 25.500000 0.500000
v -0.530330 25.000000 0.530330
v -0.000000 25.000000 0.750000
v -0.750000 25.000000 -0.000000
v -0.530330 25.000000 -0.530330
v -0.000000 25.000000 -0.750000
v 0.530330 25.000000 -0.530330
v 0.750000 25.000000 0.000000
v 0.530330 25.000000 0.530330
v 0.000000 25.500000 -0.750000
v 0.530331 25.500000 0.530330
v -0.750000 25.500000 -0.000000
v 0.530330 25.500000 -0.530330
v 0.000000 25.500000 0.750000
v -0.530330 25.500000 -0.530330
v 0.750000 25.500000 0.000000
v -0.530330 25.500000 0.530330
v -8.663606 25.908060 -0.000000
v -8.532047 25.912580 0.616520
v -8.532047 25.912580 -0.616520
v -8.843479 26.825026 -0.000000
v -8.674790 26.690807 -0.795495
v -8.674790 26.690807 0.795495
v -6.264191 25.779243 0.397747
v -6.263464 25.779243 -0.000000
v -6.264100 26.154243 -0.000000
v -6.264190 26.154243 0.397747
v -6.264190 26.154243 -0.397748
v -6.264191 25.779243 -0.397748
v -6.738447 25.573584 0.616559
v -6.644413 26.430225 -0.000000
v -6.569204 26.296007 -0.795495
v -6.710855 25.577436 -0.000000
v -6.569204 26.296007 0.795495
v -6.738447 25.573584 -0.616559
v -6.569205 25.546007 0.795495
v -8.674791 25.940807 0.795495
v -8.843479 25.940807 -0.000000
v -8.674791 25.940807 -0.795495
v -6.569205 25.546007 -0.795495
v -6.534491 25.546007 -0.000000
v -8.634123 26.073008 -0.000000
v -6.681372 25.742384 -0.000000
v -6.708964 25.738531 0.616559
v -8.502564 26.077528 0.616520
v -8.502564 26.077528 -0.616520
v -6.708964 25.738531 -0.616559
vt 0.000330 0.085706
vt 0.999684 0.062762
vt 0.999684 0.093354
vt 0.000330 0.148153
vt 0.999684 0.125209
vt 0.999684 0.155801
vt 0.000330 0.179376
vt 0.999684 0.156432
vt 0.999684 0.187024
vt 0.000330 0.054483
vt 0.999684 0.031539
vt 0.999684 0.062131
vt 0.000330 0.210599
vt 0.999684 0.187655
vt 0.999684 0.218247
vt 0.000330 0.116930
vt 0.999684 0.093986
vt 0.999684 0.124578
vt 0.399185 0.398123
vt 0.383536 0.377676
vt 0.399185 0.377676
vt 0.000330 0.241823
vt 0.999684 0.218879
vt 0.999684 0.249471
vt 0.000330 0.023260
vt 0.999684 0.000316
vt 0.999684 0.030908
vt 0.022448 0.325665
vt 0.000316 0.272234
vt 0.053747 0.250102
vt 0.027031 0.364078
vt 0.011382 0.364078
vt 0.000316 0.353012
vt 0.383022 0.364441
vt 0.398671 0.343993
vt 0.398671 0.364441
vt 0.346125 0.395743
vt 0.361775 0.375296
vt 0.361775 0.395743
vt 0.032246 0.406236
vt 0.016597 0.385788
vt 0.032246 0.385788
vt 0.276888 0.395516
vt 0.256441 0.379866
vt 0.276888 0.379866
vt 0.000316 0.406236
vt 0.015965 0.385788
vt 0.015965 0.406236
vt 0.382904 0.398123
vt 0.367254 0.377676
vt 0.382904 0.377676
vt 0.277520 0.407474
vt 0.293170 0.387027
vt 0.293170 0.407474
vt 0.356202 0.415936
vt 0.365647 0.396374
vt 0.365647 0.419849
vt 0.054496 0.391106
vt 0.063941 0.410668
vt 0.054496 0.406756
vt 0.346125 0.400287
vt 0.355571 0.419849
vt 0.346125 0.415936
vt 0.409262 0.397238
vt 0.399817 0.377676
vt 0.409262 0.381588
vt 0.411897 0.336744
vt 0.402452 0.317182
vt 0.411897 0.321094
vt 0.216924 0.396536
vt 0.226369 0.416098
vt 0.216924 0.412186
vt 0.311071 0.409616
vt 0.301626 0.390054
vt 0.311071 0.393967
vt 0.266518 0.415709
vt 0.275963 0.396147
vt 0.275963 0.419622
vt 0.054496 0.386562
vt 0.074943 0.363088
vt 0.074943 0.386562
vt 0.290841 0.254102
vt 0.258042 0.337709
vt 0.257949 0.250102
vt 0.324996 0.375296
vt 0.345443 0.398770
vt 0.324996 0.398770
vt 0.206847 0.368518
vt 0.227294 0.391992
vt 0.206847 0.391992
vt 0.277520 0.365948
vt 0.300994 0.386396
vt 0.277520 0.386396
vt 0.293801 0.387327
vt 0.300647 0.412808
vt 0.293801 0.413108
vt 0.301626 0.365948
vt 0.322073 0.389423
vt 0.301626 0.389423
vt 0.000316 0.364710
vt 0.023790 0.385157
vt 0.000316 0.385157
vt 0.410404 0.303550
vt 0.419849 0.283988
vt 0.419849 0.307463
vt 0.416700 0.347906
vt 0.407255 0.367468
vt 0.407255 0.343993
vt 0.321148 0.393967
vt 0.311703 0.413529
vt 0.311703 0.390054
vt 0.206847 0.396536
vt 0.216293 0.416098
vt 0.206847 0.412186
vt 0.064573 0.391106
vt 0.074018 0.410668
vt 0.064573 0.406756
vt 0.419849 0.254014
vt 0.410403 0.273577
vt 0.410403 0.250102
vt 0.419339 0.381588
vt 0.409893 0.401151
vt 0.409893 0.377676
vt 0.256441 0.400060
vt 0.265887 0.419622
vt 0.256441 0.415709
vt 0.071984 0.326297
vt 0.038729 0.356968
vt 0.038729 0.326297
vt 0.206847 0.331727
vt 0.240102 0.362398
vt 0.206847 0.367887
vt 0.324365 0.341470
vt 0.291565 0.257862
vt 0.324365 0.250102
vt 0.355142 0.255754
vt 0.324996 0.337710
vt 0.324996 0.250102
vt 0.045580 0.422010
vt 0.038729 0.396867
vt 0.045580 0.396771
vt 0.355773 0.255754
vt 0.385919 0.337710
vt 0.355773 0.343362
vt 0.165062 0.252855
vt 0.185323 0.486802
vt 0.170127 0.488867
vt 0.098654 0.477753
vt 0.120166 0.250448
vt 0.120166 0.487149
vt 0.185955 0.486114
vt 0.206216 0.252167
vt 0.206216 0.488867
vt 0.120797 0.259523
vt 0.142298 0.486170
vt 0.126037 0.486541
vt 0.076510 0.259498
vt 0.098022 0.486804
vt 0.081760 0.487149
vt 0.142930 0.477120
vt 0.164431 0.250474
vt 0.164431 0.486541
vt 0.346125 0.353531
vt 0.366623 0.374664
vt 0.346125 0.368867
vt 0.038729 0.379345
vt 0.053865 0.363577
vt 0.053865 0.396139
vt 0.324996 0.365126
vt 0.345494 0.343993
vt 0.345494 0.374664
vt 0.293910 0.365314
vt 0.310176 0.346101
vt 0.310176 0.365317
vt 0.367254 0.360787
vt 0.382390 0.376556
vt 0.367776 0.377045
vt 0.260705 0.365383
vt 0.276888 0.346101
vt 0.276888 0.379235
vt 0.394501 0.257112
vt 0.401820 0.337709
vt 0.394501 0.331759
vt 0.227926 0.374467
vt 0.235246 0.401773
vt 0.227927 0.400248
vt 0.402452 0.277408
vt 0.409772 0.250102
vt 0.409772 0.283357
vt 0.393870 0.257112
vt 0.386550 0.337710
vt 0.386550 0.250102
vt 0.402452 0.290997
vt 0.409773 0.316551
vt 0.402453 0.316237
vt 0.399303 0.369547
vt 0.406624 0.343993
vt 0.406624 0.376556
vt 0.255069 0.406374
vt 0.248217 0.331795
vt 0.255069 0.331727
vt 0.046212 0.422010
vt 0.053063 0.396867
vt 0.053063 0.422106
vt 0.240733 0.406374
vt 0.247585 0.331795
vt 0.247585 0.406442
vt 0.412529 0.342963
vt 0.419374 0.317482
vt 0.419374 0.343263
vt 0.232081 0.250102
vt 0.257318 0.255369
vt 0.232102 0.331095
vt 0.000316 0.068260
vt 0.000316 0.130707
vt 0.000316 0.161930
vt 0.000316 0.037037
vt 0.000316 0.193153
vt 0.000316 0.099484
vt 0.383536 0.398123
vt 0.000316 0.224377
vt 0.000316 0.005814
vt 0.075879 0.272234
vt 0.075879 0.303533
vt 0.053747 0.325665
vt 0.000316 0.303533
vt 0.022448 0.250102
vt 0.000316 0.337363
vt 0.011382 0.326297
vt 0.027031 0.326297
vt 0.038097 0.337363
vt 0.038097 0.353012
vt 0.383022 0.343993
vt 0.346125 0.375296
vt 0.016597 0.406236
vt 0.256441 0.395516
vt 0.000316 0.385788
vt 0.367254 0.398123
vt 0.277520 0.387027
vt 0.356202 0.400287
vt 0.063941 0.387194
vt 0.355571 0.396374
vt 0.399817 0.401151
vt 0.402452 0.340656
vt 0.226369 0.392624
vt 0.301626 0.413529
vt 0.266518 0.400060
vt 0.054496 0.363088
vt 0.290841 0.345469
vt 0.345443 0.375296
vt 0.227294 0.368518
vt 0.300994 0.365948
vt 0.300647 0.387027
vt 0.322073 0.365948
vt 0.023790 0.364710
vt 0.410404 0.287901
vt 0.416700 0.363555
vt 0.321148 0.409616
vt 0.216293 0.392624
vt 0.074018 0.387194
vt 0.419849 0.269664
vt 0.419339 0.397238
vt 0.265887 0.396147
vt 0.071984 0.362456
vt 0.240102 0.331727
vt 0.291473 0.345469
vt 0.355142 0.343362
vt 0.038729 0.422106
vt 0.385919 0.250102
vt 0.185323 0.250102
vt 0.103904 0.250102
vt 0.191020 0.250102
vt 0.142298 0.250102
vt 0.098022 0.250102
vt 0.148169 0.250102
vt 0.366623 0.343993
vt 0.039250 0.363088
vt 0.324996 0.349791
vt 0.277520 0.351708
vt 0.382390 0.343993
vt 0.257949 0.349353
vt 0.401820 0.250102
vt 0.235246 0.368518
vt 0.402453 0.251627
vt 0.393870 0.331760
vt 0.409773 0.283988
vt 0.399304 0.344307
vt 0.248217 0.406442
vt 0.046212 0.396771
vt 0.240733 0.331727
vt 0.412529 0.317182
vt 0.257318 0.330016
vt 0.206884 0.330029
vt 0.206847 0.255382
vn -0.3826 0.0185 0.9237
vn -0.9237 0.0185 0.3826
vn -0.9237 0.0185 -0.3826
vn -0.3826 0.0185 -0.9237
vn 0.3826 0.0185 -0.9237
vn 0.9237 0.0185 -0.3826
vn -0.3827 0.0000 -0.9239
vn 0.9237 0.0185 0.3826
vn 0.3826 0.0185 0.9237
vn 0.0000 -1.0000 0.0000
vn 0.0000 1.0000 0.0000
vn 0.9239 -0.0000 0.3827
vn -0.9239 0.0000 0.3827
vn 0.3827 -0.0000 -0.9239
vn 0.3827 -0.0000 0.9239
vn -0.3827 0.0000 0.9239
vn -0.9239 0.0000 -0.3827
vn 0.9239 -0.0000 -0.3827
vn 0.1823 0.9722 0.1468
vn 0.9636 -0.1722 0.2044
vn -0.9782 0.0000 -0.2074
vn -0.9782 0.0000 0.2074
vn 0.1753 0.9762 -0.1275
vn 0.0000 0.0000 1.0000
vn -0.9835 0.1758 0.0429
vn 0.0000 -0.0000 -1.0000
vn -0.0231 0.0000 -0.9997
vn -0.1357 -0.9891 -0.0562
vn -0.0231 0.0000 0.9997
vn 0.1178 0.9930 -0.0000
vn -0.1399 -0.9902 -0.0003
vn 0.1143 0.9923 -0.0473
vn 0.7935 0.0000 -0.6085
vn 0.6296 -0.7765 -0.0275
vn 0.7935 -0.0000 0.6085
vn 0.5873 0.8094 -0.0001
vn 0.6523 -0.7580 0.0012
vn 0.5182 0.8500 0.0944
vn -0.1857 -0.9826 0.0068
vn -0.1789 -0.9828 0.0454
vn -0.1543 -0.9875 -0.0327
vn -0.1842 -0.9826 -0.0228
vn -0.1754 -0.9844 0.0140
vn -0.1539 -0.9881 -0.0067
vn -0.9835 0.1758 -0.0429
vn 0.9636 -0.1722 -0.2044
vn -0.1668 -0.9851 -0.0428
vn 0.1753 0.9762 0.1275
vn 0.1823 0.9722 -0.1468
vn -0.1399 -0.9902 0.0003
vn 0.1143 0.9923 0.0473
vn -0.1357 -0.9891 0.0562
vn 0.6523 -0.7580 -0.0012
vn 0.5182 0.8500 -0.0944
vn 0.6296 -0.7765 0.0275
vn 0.5873 0.8094 0.0001
vn -0.1842 -0.9826 0.0228
vn -0.1543 -0.9875 0.0327
vn -0.1789 -0.9828 -0.0454
vn -0.1857 -0.9826 -0.0068
vn -0.1539 -0.9881 0.0067
vn -0.1754 -0.9844 -0.0140
vn -0.1857 -0.9825 0.0145
vn -0.1857 -0.9825 -0.0145
vn -0.1668 -0.9851 0.0428
s off
f 2/1/1 3/2/1 1/3/1
f 4/4/2 5/5/2 3/6/2
f 6/7/3 7/8/3 5/9/3
f 8/10/4 9/11/4 7/12/4
f 10/13/5 11/14/5 9/15/5
f 12/16/6 13/17/6 11/18/6
f 26/19/7 20/20/7 21/21/7
f 14/22/8 15/23/8 13/24/8
f 16/25/9 1/26/9 15/27/9
f 7/28/10 11/29/10 15/30/10
f 21/31/11 20/32/11 19/33/11
f 27/34/12 24/35/12 28/36/12
f 29/37/13 19/38/13 30/39/13
f 31/40/14 21/41/14 22/42/14
f 28/43/15 18/44/15 32/45/15
f 32/46/16 17/47/16 29/48/16
f 25/49/17 19/50/17 20/51/17
f 31/52/18 23/53/18 27/54/18
f 16/55/10 39/56/10 40/57/10
f 4/58/10 35/59/10 6/60/10
f 25/61/11 43/62/11 30/63/11
f 27/64/11 44/65/11 31/66/11
f 8/67/10 37/68/10 10/69/10
f 26/70/11 46/71/11 25/72/11
f 12/73/10 39/74/10 14/75/10
f 27/76/11 42/77/11 47/78/11
f 39/79/18 44/80/18 47/81/18
f 62/82/19 54/83/19 65/84/19
f 34/85/16 48/86/16 33/87/16
f 40/88/15 45/89/15 34/90/15
f 38/91/14 41/92/14 44/93/14
f 51/94/20 73/95/20 49/96/20
f 39/97/12 42/98/12 40/99/12
f 37/100/7 46/101/7 41/102/7
f 32/103/11 48/104/11 45/105/11
f 12/106/10 37/107/10 38/108/10
f 28/109/11 45/110/11 42/111/11
f 31/112/11 41/113/11 26/114/11
f 6/115/10 36/116/10 8/117/10
f 2/118/10 40/119/10 34/120/10
f 4/121/10 34/122/10 33/123/10
f 30/124/11 48/125/11 29/126/11
f 69/127/21 53/128/21 70/129/21
f 69/130/22 54/131/22 52/132/22
f 62/133/23 53/134/23 52/135/23
f 65/136/24 68/137/24 67/138/24
f 64/139/25 78/140/25 66/141/25
f 63/142/26 70/143/26 53/144/26
f 46/145/27 60/146/27 59/147/27
f 35/148/28 60/149/28 36/150/28
f 48/151/29 55/152/29 33/153/29
f 43/154/30 59/155/30 57/156/30
f 35/157/31 55/158/31 56/159/31
f 43/160/32 58/161/32 48/162/32
f 60/163/33 63/164/33 59/165/33
f 60/166/34 72/167/34 71/168/34
f 55/169/35 65/170/35 67/171/35
f 59/172/36 62/173/36 57/174/36
f 55/175/37 72/176/37 56/177/37
f 58/178/38 62/179/38 65/180/38
f 61/181/39 68/182/39 50/183/39
f 50/184/40 69/185/40 49/186/40
f 51/187/41 69/188/41 70/189/41
f 66/190/42 70/191/42 71/192/42
f 66/193/43 72/194/43 64/195/43
f 61/196/44 72/197/44 67/198/44
f 50/199/26 75/200/26 61/201/26
f 64/202/45 75/203/45 74/204/45
f 51/205/24 78/206/24 77/207/24
f 50/208/46 73/209/46 76/210/46
f 73/211/47 77/212/47 74/213/47
f 2/1/1 4/214/1 3/2/1
f 4/4/2 6/215/2 5/5/2
f 6/7/3 8/216/3 7/8/3
f 8/10/4 10/217/4 9/11/4
f 10/13/5 12/218/5 11/14/5
f 12/16/6 14/219/6 13/17/6
f 26/19/7 25/220/7 20/20/7
f 14/22/8 16/221/8 15/23/8
f 16/25/9 2/222/9 1/26/9
f 15/30/10 1/223/10 3/224/10
f 3/224/10 5/225/10 7/28/10
f 7/28/10 9/226/10 11/29/10
f 11/29/10 13/227/10 15/30/10
f 15/30/10 3/224/10 7/28/10
f 19/33/11 17/228/11 18/229/11
f 18/229/11 24/230/11 19/33/11
f 24/230/11 23/231/11 19/33/11
f 23/231/11 22/232/11 19/33/11
f 22/232/11 21/31/11 19/33/11
f 27/34/12 23/233/12 24/35/12
f 29/37/13 17/234/13 19/38/13
f 31/40/14 26/235/14 21/41/14
f 28/43/15 24/236/15 18/44/15
f 32/46/16 18/237/16 17/47/16
f 25/49/17 30/238/17 19/50/17
f 31/52/18 22/239/18 23/53/18
f 16/55/10 14/240/10 39/56/10
f 4/58/10 33/241/10 35/59/10
f 25/61/11 46/242/11 43/62/11
f 27/64/11 47/243/11 44/65/11
f 8/67/10 36/244/10 37/68/10
f 26/70/11 41/245/11 46/71/11
f 12/73/10 38/246/10 39/74/10
f 27/76/11 28/247/11 42/77/11
f 39/79/18 38/248/18 44/80/18
f 62/82/48 52/249/48 54/83/48
f 34/85/16 45/250/16 48/86/16
f 40/88/15 42/251/15 45/89/15
f 38/91/14 37/252/14 41/92/14
f 51/94/20 77/253/20 73/95/20
f 39/97/12 47/254/12 42/98/12
f 37/100/7 36/255/7 46/101/7
f 32/103/11 29/256/11 48/104/11
f 12/106/10 10/257/10 37/107/10
f 28/109/11 32/258/11 45/110/11
f 31/112/11 44/259/11 41/113/11
f 6/115/10 35/260/10 36/116/10
f 2/118/10 16/261/10 40/119/10
f 4/121/10 2/262/10 34/122/10
f 30/124/11 43/263/11 48/125/11
f 69/127/21 52/264/21 53/128/21
f 69/130/22 68/265/22 54/131/22
f 62/133/49 63/266/49 53/134/49
f 65/136/24 54/267/24 68/137/24
f 64/139/25 74/268/25 78/140/25
f 63/142/26 71/269/26 70/143/26
f 46/145/27 36/270/27 60/146/27
f 35/148/50 56/271/50 60/149/50
f 48/151/29 58/272/29 55/152/29
f 43/154/51 46/273/51 59/155/51
f 35/157/52 33/274/52 55/158/52
f 43/160/30 57/275/30 58/161/30
f 60/163/33 71/276/33 63/164/33
f 60/166/53 56/277/53 72/167/53
f 55/169/35 58/278/35 65/170/35
f 59/172/54 63/279/54 62/173/54
f 55/175/55 67/280/55 72/176/55
f 58/178/56 57/281/56 62/179/56
f 61/181/57 67/282/57 68/182/57
f 50/184/58 68/283/58 69/185/58
f 51/187/59 49/284/59 69/188/59
f 66/190/60 51/285/60 70/191/60
f 66/193/61 71/286/61 72/194/61
f 61/196/62 64/287/62 72/197/62
f 50/199/26 76/288/26 75/200/26
f 64/202/45 61/289/45 75/203/45
f 51/205/24 66/290/24 78/206/24
f 50/208/46 49/291/46 73/209/46
f 78/292/63 74/213/63 77/212/63
f 74/213/64 75/293/64 76/294/64
f 73/211/65 74/213/65 76/294/65
